<?xml version="1.0" encoding="UTF-8" standalone="no"?>
<!-- Created with Inkscape (http://www.inkscape.org/) -->

<svg
   width="939.5mm"
   height="254mm"
   viewBox="0 0 939.5 254"
   version="1.1"
   id="svg5247"
   xml:space="preserve"
   inkscape:version="1.2.2 (b0a8486, 2022-12-01)"
   sodipodi:docname="logo.svg"
   xmlns:inkscape="http://www.inkscape.org/namespaces/inkscape"
   xmlns:sodipodi="http://sodipodi.sourceforge.net/DTD/sodipodi-0.dtd"
   xmlns="http://www.w3.org/2000/svg"
   xmlns:svg="http://www.w3.org/2000/svg"><sodipodi:namedview
     id="namedview5249"
     pagecolor="#ffffff"
     bordercolor="#666666"
     borderopacity="1.0"
     inkscape:showpageshadow="2"
     inkscape:pageopacity="0.0"
     inkscape:pagecheckerboard="0"
     inkscape:deskcolor="#d1d1d1"
     inkscape:document-units="mm"
     showgrid="false"
     showguides="true"
     inkscape:zoom="0.53055019"
     inkscape:cx="1683.1584"
     inkscape:cy="383.56409"
     inkscape:window-width="2413"
     inkscape:window-height="1205"
     inkscape:window-x="0"
     inkscape:window-y="25"
     inkscape:window-maximized="0"
     inkscape:current-layer="layer1"><sodipodi:guide
       position="256.93018,222.46067"
       orientation="0,-1"
       id="guide18001"
       inkscape:locked="false" /><sodipodi:guide
       position="939.39014,174.40296"
       orientation="1,0"
       id="guide18003"
       inkscape:locked="false" /></sodipodi:namedview><defs
     id="defs5244"><style
       id="style10087">.cls-1{fill:#abd0e4;}.cls-2{fill:#28393f;}.cls-3{fill:#fff;}.cls-4{fill:#e03f00;}.cls-5{fill:#534b42;}.cls-6{fill:#007f94;}.cls-7{fill:url(#linear-gradient);}.cls-8{fill:#5d8da2;}.cls-9{fill:#565859;}</style><linearGradient
       id="linear-gradient"
       x1="222.85001"
       y1="319.62"
       x2="223.42"
       y2="255.82001"
       gradientUnits="userSpaceOnUse"
       gradientTransform="matrix(0.6557208,0,0,0.6557208,-36.949871,-36.9302)"><stop
         offset="0"
         stop-color="#007f94"
         id="stop10089" /><stop
         offset="0.03"
         stop-color="#087a8c"
         id="stop10091" /><stop
         offset="0.18"
         stop-color="#236971"
         id="stop10093" /><stop
         offset="0.33"
         stop-color="#385c5c"
         id="stop10095" /><stop
         offset="0.5"
         stop-color="#47524d"
         id="stop10097" /><stop
         offset="0.7"
         stop-color="#504d45"
         id="stop10099" /><stop
         offset="1"
         stop-color="#534b42"
         id="stop10101" /></linearGradient></defs><g
     inkscape:label="Warstwa 1"
     inkscape:groupmode="layer"
     id="layer1"><ellipse
       class="cls-1"
       cx="126.97378"
       cy="127"
       rx="126.97378"
       ry="127"
       id="ellipse10106"
       style="stroke-width:0.655721" /><path
       class="cls-2"
       d="m 139.93081,183.03134 -37.52034,-9.63254 c -1.8688,-0.17704 -3.278603,-1.34422 -3.567121,-2.74747 -0.367203,-1.96716 1.691761,-3.42286 1.967161,-3.62613 2.02618,-1.46226 4.59005,-1.08194 5.69166,-0.91145 4.66873,0.74752 18.86509,3.4163 37.95312,7.34407 0.1836,0 2.90484,0.57703 3.87531,3.05566 a 4.9047916,4.9047916 0 0 1 -0.32786,4.12448 c -1.26554,2.24912 -4.57038,3.33106 -8.07193,2.39338 z"
       id="path10108"
       style="stroke-width:0.655721;fill:#5d8da2;fill-opacity:1" /><path
       class="cls-3"
       d="m 166.69734,69.335913 c -3.57368,9.062061 -14.11111,8.819445 -15.70452,16.268433 -0.75407,3.494992 0.9508,6.17689 2.12454,8.740758 6.01952,13.166876 -2.47862,33.848306 -15.53403,50.838036 a 109.50537,109.50537 0 0 1 -15.69139,16.64219 91.204206,91.204206 0 0 1 -9.75057,7.21293 l -7.39653,37.81542 -21.514203,1.51471 q 3.160574,-19.80932 6.308034,-39.61209 C 85.027312,155.80581 77.401279,127.4131 88.941965,97.735181 a 89.020656,89.020656 0 0 1 4.701519,-10.137444 c 1.003252,-1.842575 2.045848,-3.599907 3.101559,-5.245766 0.07869,-1.639302 1.567173,-24.491172 20.786347,-35.349909 14.51766,-8.203067 34.89091,-7.153914 43.03496,2.131093 1.18685,1.350785 4.48513,3.698265 6.10476,8.176838 0.30819,0.891781 2.23601,6.41295 0.0262,12.02592 z"
       id="path10110"
       style="stroke-width:0.655721" /><path
       class="cls-3"
       d="m 200.82105,73.670227 a 41.205495,41.205495 0 0 1 -10.67514,1.252427 c -8.27519,-0.150816 -12.38656,-2.852385 -20.46504,-1.967162 a 31.913931,31.913931 0 0 0 -6.44574,1.416357 15.861886,15.861886 0 0 0 4.28842,-8.078481 15.645498,15.645498 0 0 0 -0.32786,-7.285058 87.90593,87.90593 0 0 1 33.62536,14.635689 z"
       id="path10112"
       style="stroke-width:0.655721" /><path
       class="cls-4"
       d="m 121.60342,161.09748 c -0.059,0.65572 -0.15082,1.80979 -0.25573,3.23926 a 8.3932262,8.3932262 0 0 1 -0.32131,2.44584 c -0.62293,1.59996 -2.29502,2.28847 -2.94418,2.62288 -1.67209,0.83933 -3.74417,2.88518 -5.4097,8.21619 0.47212,-0.82621 4.17694,-7.049 11.14725,-7.79652 a 13.402933,13.402933 0 0 1 6.32115,0.89178 5.3834678,5.3834678 0 0 0 -2.36715,-2.34093 c -1.31144,-0.61638 -2.37371,-0.30163 -3.03599,-1.13439 -0.33441,-0.41967 -0.39999,-0.91146 -0.3672,-2.05241 a 25.028863,25.028863 0 0 1 0.65572,-4.83266 z"
       id="path10114"
       style="stroke-width:0.655721;fill:#ffffff" /><path
       class="cls-4"
       d="m 124.97382,163.83839 c 0.0787,0.65573 0.21639,1.79668 0.39999,3.21959 0.19672,1.56062 0.25573,1.96717 0.16393,2.46551 -0.28851,1.68521 -1.79011,2.69502 -2.36059,3.14091 -1.47537,1.16062 -3.10156,3.57367 -3.67204,9.12763 0.30163,-0.90489 2.69501,-7.74406 9.36369,-9.83581 a 13.422605,13.422605 0 0 1 6.37361,-0.38032 5.3310101,5.3310101 0 0 0 -2.78681,-1.8229 c -1.41636,-0.34754 -2.38683,0.17048 -3.19992,-0.51147 -0.4131,-0.34097 -0.57703,-0.80653 -0.76719,-1.93437 a 25.245251,25.245251 0 0 1 -0.34754,-4.85889 z"
       id="path10116"
       style="stroke-width:0.655721;fill:#ffffff" /><path
       class="cls-3"
       d="m 137.58333,145.18314 a 51.801943,51.801943 0 0 1 -2.55731,7.00965 c -1.79011,3.99334 -5.24576,11.80298 -9.22599,11.57348 -1.04915,-0.059 -2.11142,-0.65573 -3.31795,-1.37702 a 13.920953,13.920953 0 0 1 -3.31794,-2.69501 z"
       id="path10118"
       style="stroke-width:0.655721" /><ellipse
       class="cls-8"
       cx="153.37965"
       cy="58.011612"
       rx="6.7670383"
       ry="2.3933809"
       id="ellipse10128"
       style="stroke-width:0.655721" /><circle
       class="cls-5"
       cx="-57.30122"
       cy="155.85597"
       r="1.3835708"
       transform="rotate(-89.73)"
       id="circle10130"
       style="stroke-width:0.655721" /><g
       id="g17999"
       transform="matrix(1.0721211,0,0,1.0721211,-42.3725,-13.00581)"><path
         d="m 308.20781,79.620385 h 31.41361 v 35.574345 h 34.32612 V 79.620385 h 31.5523 V 181.28119 h -31.5523 v -41.122 h -34.32612 v 41.122 h -31.41361 z"
         style="font-weight:900;font-size:142.02px;line-height:1.25;font-family:'Arial Black';-inkscape-font-specification:'Arial Black, Heavy';stroke-width:0.710098"
         id="path17948" /><path
         d="m 450.22782,131.49097 -26.97548,-2.84317 q 1.5256,-7.07326 4.36878,-11.09531 2.91252,-4.0914 8.32148,-7.07327 3.88336,-2.14971 10.67924,-3.32859 6.79588,-1.17888 14.70129,-1.17888 12.69026,0 20.38764,1.45626 7.69737,1.38692 12.82895,5.89439 3.60598,3.12055 5.68635,8.87625 2.08037,5.68635 2.08037,10.88727 v 32.52314 q 0,5.20093 0.62411,8.18279 0.69346,2.91252 2.91252,7.48934 h -26.49006 q -1.59495,-2.84317 -2.08037,-4.29943 -0.48542,-1.52561 -0.97084,-4.71551 -5.54765,5.33962 -11.02596,7.62802 -7.48934,3.05122 -17.40578,3.05122 -13.17568,0 -20.04091,-6.10243 -6.79587,-6.10242 -6.79587,-15.04801 0,-8.39083 4.92354,-13.7998 4.92355,-5.40896 18.16858,-8.0441 15.88016,-3.1899 20.59567,-4.43813 4.71551,-1.31756 9.98578,-3.39794 0,-5.20092 -2.14972,-7.2813 -2.14971,-2.08037 -7.55868,-2.08037 -6.93457,0 -10.40185,2.21907 -2.70449,1.73364 -4.36878,6.51849 z m 24.47903,14.83998 q -5.82504,2.08037 -12.1355,3.67533 -8.59886,2.2884 -10.88727,4.50747 -2.35776,2.28841 -2.35776,5.20092 0,3.3286 2.28841,5.47832 2.35776,2.08037 6.86523,2.08037 4.7155,0 8.73755,-2.28841 4.0914,-2.28841 5.7557,-5.54766 1.73364,-3.32859 1.73364,-8.59887 z"
         style="font-weight:900;font-size:142.02px;line-height:1.25;font-family:'Arial Black';-inkscape-font-specification:'Arial Black, Heavy';stroke-width:0.710098"
         id="path17950" /><path
         d="m 520.19763,79.620385 h 28.29304 V 181.28119 h -28.29304 z"
         style="font-weight:900;font-size:142.02px;line-height:1.25;font-family:'Arial Black';-inkscape-font-specification:'Arial Black, Heavy';stroke-width:0.710098"
         id="path17952" /><path
         d="m 621.44238,152.50272 26.83679,3.05121 q -2.21907,8.39083 -7.2813,14.5626 -5.06224,6.10242 -12.96765,9.50036 -7.83606,3.39794 -19.97156,3.39794 -11.71943,0 -19.55549,-2.14972 -7.76672,-2.21906 -13.38372,-7.07326 -5.617,-4.92354 -8.80691,-11.51138 -3.1899,-6.58785 -3.1899,-17.47512 0,-11.3727 3.88336,-18.93138 2.84317,-5.54766 7.76672,-9.91644 4.92354,-4.43812 10.12447,-6.58784 8.25214,-3.39794 21.15044,-3.39794 18.02989,0 27.4609,6.44915 9.50036,6.44915 13.31438,18.86204 l -26.55941,3.53663 q -1.24822,-4.71551 -4.57681,-7.07327 -3.25925,-2.4271 -8.80691,-2.4271 -7.00392,0 -11.3727,5.06224 -4.29943,4.99289 -4.29943,15.18671 0,9.08429 4.29943,13.7998 4.29944,4.7155 10.95663,4.7155 5.54765,0 9.29232,-2.84317 3.81401,-2.84317 5.68635,-8.73756 z"
         style="font-weight:900;font-size:142.02px;line-height:1.25;font-family:'Arial Black';-inkscape-font-specification:'Arial Black, Heavy';stroke-width:0.710098"
         id="path17954" /><path
         d="m 650.63689,107.63605 h 29.81865 l 15.18671,49.02741 14.07718,-49.02741 h 27.80763 l -29.19454,78.70738 q -4.99289,13.45306 -10.19382,18.16857 -7.35065,6.65719 -22.39867,6.65719 -6.10242,0 -18.86203,-1.6643 l -2.21906,-19.69418 q 6.10242,1.94168 13.59176,1.94168 4.99289,0 8.0441,-2.28841 3.12056,-2.28841 5.27027,-8.18279 z"
         style="font-weight:900;font-size:142.02px;line-height:1.25;font-family:'Arial Black';-inkscape-font-specification:'Arial Black, Heavy';stroke-width:0.710098"
         id="path17956" /><path
         d="m 739.67677,144.66666 q 0,-16.85101 11.37269,-27.73829 11.3727,-10.95662 30.72015,-10.95662 22.12128,0 33.42463,12.82896 9.08429,10.33251 9.08429,25.44987 0,16.9897 -11.30335,27.87698 -11.234,10.81793 -31.13622,10.81793 -17.7525,0 -28.70912,-9.01495 -13.45307,-11.16465 -13.45307,-29.26388 z m 28.29305,-0.0694 q 0,9.84709 3.9527,14.5626 4.02205,4.71551 10.05513,4.71551 6.10242,0 9.98578,-4.64617 3.95271,-4.64616 3.95271,-14.90932 0,-9.56971 -3.95271,-14.21587 -3.9527,-4.71551 -9.77774,-4.71551 -6.17177,0 -10.19382,4.78485 -4.02205,4.71551 -4.02205,14.42391 z"
         style="font-weight:900;font-size:142.02px;line-height:1.25;font-family:'Arial Black';-inkscape-font-specification:'Arial Black, Heavy';stroke-width:0.710098"
         id="path17958" /><path
         d="m 837.87031,107.63605 h 26.28202 v 11.99681 q 5.89439,-7.35065 11.92747,-10.4712 6.03307,-3.18991 14.70128,-3.18991 11.71943,0 18.30727,7.00392 6.65719,6.93457 6.65719,21.49717 v 46.80835 H 887.38315 V 140.7833 q 0,-6.93457 -2.5658,-9.77775 -2.56579,-2.91252 -7.21195,-2.91252 -5.13158,0 -8.32148,3.88336 -3.18991,3.88336 -3.18991,13.93849 v 35.36631 h -28.2237 z"
         style="font-weight:900;font-size:142.02px;line-height:1.25;font-family:'Arial Black';-inkscape-font-specification:'Arial Black, Heavy';stroke-width:0.710098"
         id="path17960" /></g></g></svg>
